<svg id="Capa_6" data-name="Capa 6" xmlns="http://www.w3.org/2000/svg" xmlns:xlink="http://www.w3.org/1999/xlink" viewBox="0 0 403 75"><defs><style>.cls-1{fill:none;}.cls-2{clip-path:url(#clip-path);}.cls-3{fill:url(#Degradado_sin_nombre_2);}</style><clipPath id="clip-path" transform="translate(-118 -136)"><path class="cls-1" d="M123.14,171.18a21.33,21.33,0,0,1,8.61-8.57,26.14,26.14,0,0,1,12.64-3,23.88,23.88,0,0,1,15.42,5q6.24,5,8.05,14H150q-1.54-4.71-6-4.71a5.81,5.81,0,0,0-5,2.62q-1.84,2.61-1.84,7.66t1.84,7.71a5.8,5.8,0,0,0,5,2.66q4.54,0,6-4.71h17.82a23.19,23.19,0,0,1-8.05,14,23.74,23.74,0,0,1-15.42,5.05,26,26,0,0,1-12.64-3,21.33,21.33,0,0,1-8.61-8.57,29.25,29.25,0,0,1,0-26.13Zm53-17.86a7.94,7.94,0,0,1-2.69-6.13,8.16,8.16,0,0,1,2.69-6.25,10.14,10.14,0,0,1,7.16-2.48,10,10,0,0,1,7.07,2.48,8.16,8.16,0,0,1,2.69,6.25,7.94,7.94,0,0,1-2.69,6.13,10.13,10.13,0,0,1-7.07,2.44A10.26,10.26,0,0,1,176.12,153.32Zm15.47,6.89v48.06H174.8V160.21Zm54.22,5.1q4.89,5.53,4.89,14.95v28H233.91V182.49a9.3,9.3,0,0,0-2.14-6.47,7.39,7.39,0,0,0-5.74-2.35,7.6,7.6,0,0,0-5.92,2.35,9.3,9.3,0,0,0-2.14,6.47v25.78H201.18V160.21H218v6.86a16.63,16.63,0,0,1,6-5.27,18.1,18.1,0,0,1,8.65-2Q240.93,159.79,245.81,165.31Zm59.8,22.32H273.83A8.87,8.87,0,0,0,276,193.5a6.7,6.7,0,0,0,4.93,1.92,6.16,6.16,0,0,0,6-3.76h17.91a21,21,0,0,1-4.33,8.86,22.37,22.37,0,0,1-8.09,6.13,27.8,27.8,0,0,1-23.43-.77,21.58,21.58,0,0,1-8.66-8.57,29.17,29.17,0,0,1,0-26.17,21.36,21.36,0,0,1,8.61-8.53,28.64,28.64,0,0,1,25.32-.08,20.92,20.92,0,0,1,8.56,8.35,25.52,25.52,0,0,1,3.09,12.81A30.67,30.67,0,0,1,305.61,187.63Zm-16.88-8.14a6,6,0,0,0-2.05-4.84,8.44,8.44,0,0,0-10.2-.09,8.18,8.18,0,0,0-2.57,4.93Zm49.95-5.31h-7.54v34.09H314.26V174.18H309v-14h5.22v-.42q0-9.25,5.44-14.18t15.64-4.93c1.37,0,2.42,0,3.17.09v14.31a15.42,15.42,0,0,0-1.89-.09,5.62,5.62,0,0,0-4,1.24,5.9,5.9,0,0,0-1.45,4h7.54Zm5.95-3a20.51,20.51,0,0,1,7.37-8.57,18.91,18.91,0,0,1,10.41-3,17.49,17.49,0,0,1,8.56,2,14.18,14.18,0,0,1,5.57,5.31v-6.69h16.79v48.06H376.54v-6.68a14.1,14.1,0,0,1-5.61,5.31,17.58,17.58,0,0,1-8.52,2,18.83,18.83,0,0,1-10.41-3,20.44,20.44,0,0,1-7.37-8.61,29.83,29.83,0,0,1-2.7-13.07A29.51,29.51,0,0,1,344.63,171.18ZM374,176.92a8.67,8.67,0,0,0-12.46,0q-2.49,2.61-2.49,7.32a10.39,10.39,0,0,0,2.49,7.33,8.13,8.13,0,0,0,6.25,2.69,8.22,8.22,0,0,0,6.21-2.65,10.24,10.24,0,0,0,2.53-7.37A10.11,10.11,0,0,0,374,176.92Zm73.55-11.61q4.88,5.53,4.88,14.95v28H435.65V182.49a9.25,9.25,0,0,0-2.14-6.47,7.38,7.38,0,0,0-5.74-2.35,7.56,7.56,0,0,0-5.91,2.35,9.25,9.25,0,0,0-2.14,6.47v25.78H402.93V160.21h16.79v6.86a16.51,16.51,0,0,1,6-5.27,18.14,18.14,0,0,1,8.66-2Q442.67,159.79,447.56,165.31Zm42.15,18.29a59,59,0,0,0,8.9-9.72q3.6-5,3.6-9.55A6.66,6.66,0,0,0,501,160a4.42,4.42,0,0,0-3.64-1.54,4.36,4.36,0,0,0-3.86,2.1,10.83,10.83,0,0,0-1.28,6.13H475.91a25.47,25.47,0,0,1,3.34-12.64,18.84,18.84,0,0,1,8.06-7.37,25.45,25.45,0,0,1,11.05-2.35q10.53,0,15.67,5.22t5.14,13.54a27,27,0,0,1-5.95,16.7,65.27,65.27,0,0,1-14.86,14h21.41v13.62H476.08v-12.6Q484.39,188.33,489.71,183.6Z"/></clipPath><linearGradient id="Degradado_sin_nombre_2" y1="37.5" x2="403" y2="37.5" gradientUnits="userSpaceOnUse"><stop offset="0" stop-color="#f96"/><stop offset="0.53" stop-color="#ff7764"/><stop offset="1" stop-color="#ff5e62"/></linearGradient></defs><title>cinefan</title><g class="cls-2"><rect class="cls-3" width="403" height="75"/></g></svg>