<svg xmlns="http://www.w3.org/2000/svg" viewBox="0 0 404.26 73.89"><defs><style>.cls-1{fill:#35758d;}.cls-2{fill:#93278f;}</style></defs><title>cinefan</title><g id="Capa_5" data-name="Capa 5"><path class="cls-1" d="M123.87,178.11a29.42,29.42,0,0,1,10.76-9.1,32.08,32.08,0,0,1,14.5-3.25A26.36,26.36,0,0,1,161,168.23a17.53,17.53,0,0,1,7.58,7,19.93,19.93,0,0,1,2.54,10.49H153.62a7.16,7.16,0,0,0-2.7-3.89,8,8,0,0,0-4.78-1.39,9.75,9.75,0,0,0-7.17,3,14.69,14.69,0,0,0-3.89,8.06,15,15,0,0,0-.3,3.07,8.46,8.46,0,0,0,1.91,5.85,6.86,6.86,0,0,0,5.42,2.14,10.57,10.57,0,0,0,5.3-1.39,11.65,11.65,0,0,0,4.11-3.89H169a30.54,30.54,0,0,1-6.5,10.49,29.48,29.48,0,0,1-10.13,7,32.62,32.62,0,0,1-12.74,2.46,26.36,26.36,0,0,1-11.88-2.46,17.07,17.07,0,0,1-7.48-7,21.21,21.21,0,0,1-2.54-10.53,31.66,31.66,0,0,1,.52-5.71A32,32,0,0,1,123.87,178.11Z" transform="translate(-117.74 -143.32)"/><path class="cls-1" d="M201.25,166.75,192,216.6H171.44l9.26-49.85Zm-17-6.19a7,7,0,0,1-2.73-5.75,10.21,10.21,0,0,1,1.76-5.74,12.09,12.09,0,0,1,5-4.2,16,16,0,0,1,7.08-1.55,11.33,11.33,0,0,1,7.45,2.26,7.26,7.26,0,0,1,2.73,5.88,9.79,9.79,0,0,1-1.76,5.65,12.42,12.42,0,0,1-4.91,4.11,15.71,15.71,0,0,1-7,1.55A11.71,11.71,0,0,1,184.26,160.56Z" transform="translate(-117.74 -143.32)"/><path class="cls-1" d="M258.74,170.59q4.06,4.2,4.07,11.54a29.77,29.77,0,0,1-.56,5.56l-5.37,28.91H236.43l4.9-26.43a16.62,16.62,0,0,0,.19-1.95A5.5,5.5,0,0,0,239.9,184a6.36,6.36,0,0,0-4.49-1.5,8.28,8.28,0,0,0-5.65,2,9.84,9.84,0,0,0-3,5.57L221.8,216.6H201.25l9.26-49.85h20.55l-1.39,7.51a23.08,23.08,0,0,1,7.5-5.7,22.33,22.33,0,0,1,9.9-2.17Q254.66,166.39,258.74,170.59Z" transform="translate(-117.74 -143.32)"/><path class="cls-1" d="M315.48,171.39q6.11,5.25,6.11,14.36a30.18,30.18,0,0,1-.55,5.48,34.72,34.72,0,0,1-1,3.89H287.06a9.47,9.47,0,0,0-.09,1.5q0,4.95,4.44,4.95a6.12,6.12,0,0,0,5.37-2.92h21.76a26.19,26.19,0,0,1-6.39,9.51,32.46,32.46,0,0,1-10.23,6.63,32,32,0,0,1-12.36,2.43q-10.37,0-16.43-5.26t-6.06-14.63a30.28,30.28,0,0,1,.55-5.66,31.63,31.63,0,0,1,5.93-13.57,29.47,29.47,0,0,1,11.06-8.88A33.59,33.59,0,0,1,299,166.13Q309.37,166.13,315.48,171.39ZM301,185.75a3.73,3.73,0,0,0-1.39-3.18,5.61,5.61,0,0,0-3.52-1.06q-5.55,0-7.5,5.57H301A7.28,7.28,0,0,0,301,185.75Z" transform="translate(-117.74 -143.32)"/><path class="cls-2" d="M380.65,154l-2.87,15.56H352l-1.57,8.66H369L366.21,193H347.69l-4.35,23.6H322.79L334.36,154Z" transform="translate(-117.74 -143.32)"/><path class="cls-2" d="M419.81,207.14H398l-5,9.46H371.39L406.94,154h23.69L443,216.6H421.28Zm-2.23-14.76L414.9,175l-9.17,17.41Z" transform="translate(-117.74 -143.32)"/><path class="cls-2" d="M510.43,216.6H489.88L474,185.13l-5.84,31.47H447.58L459.15,154H479.7l15.83,32,5.92-32H522Z" transform="translate(-117.74 -143.32)"/></g></svg>