<svg xmlns="http://www.w3.org/2000/svg" viewBox="0 0 402.56 92.16"><defs><style>.cls-1{fill:#09212d;}.cls-2{fill:#fc3;}.cls-3{fill:#c93;}</style></defs><title>climapp</title><g id="Capa_4" data-name="Capa 4"><path class="cls-1" d="M264.34,205.19a21.45,21.45,0,0,1-3.45,2.1,31.35,31.35,0,0,1-6.17,2.33,28.61,28.61,0,0,1-8.08.93,32.25,32.25,0,0,1-12.08-2.44,26.54,26.54,0,0,1-9-6.26,27.66,27.66,0,0,1-5.63-9.08,30.77,30.77,0,0,1-1.94-11,34.7,34.7,0,0,1,2-12,27.37,27.37,0,0,1,5.67-9.4,25.5,25.5,0,0,1,8.82-6.13,28.68,28.68,0,0,1,11.33-2.18A30.58,30.58,0,0,1,256,153.71a34.84,34.84,0,0,1,7.22,3.34l-4.43,10.63a32.2,32.2,0,0,0-5.16-3.06,16.56,16.56,0,0,0-7.42-1.59,15,15,0,0,0-6.25,1.35,16.39,16.39,0,0,0-5.28,3.85A18.64,18.64,0,0,0,231,174a19.2,19.2,0,0,0-1.32,7.19,22.61,22.61,0,0,0,1.2,7.53,16.71,16.71,0,0,0,3.46,5.86,15.26,15.26,0,0,0,5.4,3.77,18.16,18.16,0,0,0,7.1,1.32,18.86,18.86,0,0,0,7.85-1.48,17.84,17.84,0,0,0,5-3.1Z" transform="translate(-118.44 -134.07)"/><path class="cls-1" d="M273.82,148.66h10.87v61.27H273.82Z" transform="translate(-118.44 -134.07)"/><path class="cls-1" d="M295.64,164a4.87,4.87,0,0,1,1.9-4,6.33,6.33,0,0,1,4.08-1.56,6,6,0,0,1,4,1.56,5,5,0,0,1,1.82,4,4.88,4.88,0,0,1-1.82,3.92,6.13,6.13,0,0,1-4,1.51,6.43,6.43,0,0,1-4.08-1.51A4.78,4.78,0,0,1,295.64,164Zm.23,12h10.87v33.94H295.87Z" transform="translate(-118.44 -134.07)"/><path class="cls-1" d="M327.79,176l.85,6-.15-.46a15.3,15.3,0,0,1,5.05-5.32,13.43,13.43,0,0,1,7.3-1.9,14.62,14.62,0,0,1,4.93.77,9.58,9.58,0,0,1,3.61,2.29,8.11,8.11,0,0,1,2,3.93l-.39.07a18,18,0,0,1,5.24-5.12,11.77,11.77,0,0,1,6.41-1.94,11.22,11.22,0,0,1,8,2.83,9.91,9.91,0,0,1,3.06,7.34v25.47H363V189a10.35,10.35,0,0,0-.7-3.69c-.42-1-1.37-1.48-2.87-1.59a6.08,6.08,0,0,0-4.47,1.83,11.2,11.2,0,0,0-2.72,4.66,19.54,19.54,0,0,0-.89,5.86v13.9H340.45V189a8.75,8.75,0,0,0-.82-3.69,3.34,3.34,0,0,0-3-1.59,5.73,5.73,0,0,0-4.31,1.83,11.73,11.73,0,0,0-2.64,4.62,18.91,18.91,0,0,0-.89,5.74v14.06H317.93V176Z" transform="translate(-118.44 -134.07)"/><path class="cls-1" d="M399.23,210.86a19.1,19.1,0,0,1-8.58-1.9,14.14,14.14,0,0,1-6.09-5.86,23,23,0,0,1,.07-20,17.05,17.05,0,0,1,6.14-6.48,15.39,15.39,0,0,1,8.08-2.29c3.36,0,5.91.55,7.64,1.67a18.82,18.82,0,0,1,4.31,3.68l-.46,1.32,1-5h10.09v33.94H410.57v-7.38l.86,2.33c-.11,0-.42.3-.94.9a17.38,17.38,0,0,1-2.29,2.09,14.91,14.91,0,0,1-3.72,2.1A14.14,14.14,0,0,1,399.23,210.86Zm3.11-8.85a9.83,9.83,0,0,0,3.49-.58,7.76,7.76,0,0,0,2.72-1.71,10.25,10.25,0,0,0,2-2.84v-8.31a7.65,7.65,0,0,0-1.86-2.91,8.71,8.71,0,0,0-2.95-1.86,10.51,10.51,0,0,0-3.81-.66,8.17,8.17,0,0,0-4.31,1.2,8.81,8.81,0,0,0-3.14,3.3,10.38,10.38,0,0,0,.07,9.71,9.34,9.34,0,0,0,3.3,3.42A8.49,8.49,0,0,0,402.34,202Z" transform="translate(-118.44 -134.07)"/><path class="cls-1" d="M453.9,210.86a16.42,16.42,0,0,1-5.94-1.12,12.72,12.72,0,0,1-4.85-3.23l.31-3.18v22.91H432.63v-51H442l1.55,6.6-.86-2.33a25,25,0,0,1,5.91-3.73,18.13,18.13,0,0,1,7.53-1.47,16.18,16.18,0,0,1,8.46,2.21,15.37,15.37,0,0,1,5.87,6.37,21.63,21.63,0,0,1,2.13,10,18.71,18.71,0,0,1-2.41,9.78,15.7,15.7,0,0,1-6.6,6.14A21.32,21.32,0,0,1,453.9,210.86Zm-2.17-8.54a10.31,10.31,0,0,0,4.85-1.16,9.33,9.33,0,0,0,3.58-3.31,8.88,8.88,0,0,0,1.36-4.85,10.1,10.1,0,0,0-1.21-5,8.79,8.79,0,0,0-7.8-4.54,11.67,11.67,0,0,0-3.85.58,9,9,0,0,0-3,1.71,10.42,10.42,0,0,0-2.21,2.83v8.31a8.71,8.71,0,0,0,1.78,2.88,7.76,7.76,0,0,0,2.84,1.9A9.73,9.73,0,0,0,451.73,202.32Z" transform="translate(-118.44 -134.07)"/><path class="cls-1" d="M502.36,210.86a16.34,16.34,0,0,1-5.94-1.12,12.72,12.72,0,0,1-4.85-3.23l.31-3.18v22.91h-10.8v-51h9.32l1.56,6.6-.86-2.33a25.1,25.1,0,0,1,5.9-3.73,18.21,18.21,0,0,1,7.54-1.47A16.21,16.21,0,0,1,513,176.5a15.28,15.28,0,0,1,5.86,6.37,21.5,21.5,0,0,1,2.14,10,18.71,18.71,0,0,1-2.41,9.78,15.7,15.7,0,0,1-6.6,6.14A21.32,21.32,0,0,1,502.36,210.86Zm-2.17-8.54a10.31,10.31,0,0,0,4.85-1.16,9.23,9.23,0,0,0,3.57-3.31A8.8,8.8,0,0,0,510,193a10.09,10.09,0,0,0-1.2-5,8.79,8.79,0,0,0-7.81-4.54,11.57,11.57,0,0,0-3.84.58,8.85,8.85,0,0,0-2.95,1.71,10.42,10.42,0,0,0-2.21,2.83v8.31a8.71,8.71,0,0,0,1.78,2.88,7.68,7.68,0,0,0,2.84,1.9A9.7,9.7,0,0,0,500.19,202.32Z" transform="translate(-118.44 -134.07)"/><path class="cls-2" d="M206.73,178a42,42,0,0,1-2.54,14.39,27,27,0,0,1-19.49,17,52.75,52.75,0,0,1-10.6,1.5c-28.63,0-23.47-53-51.83-49.35-5.56.72-4.91-1.83.86-9h0a46.75,46.75,0,0,1,37.53-18.43C186.1,134.07,206.73,153.72,206.73,178Z" transform="translate(-118.44 -134.07)"/><path class="cls-3" d="M190.1,156.1c-.16-.28.17-.58.39-.36a29.7,29.7,0,0,1,8.84,18.12c1.79,15.53-8.24,29.43-22.4,31.07-.53.06-1.06.1-1.59.13a.43.43,0,0,1-.15-.82c12.8-4.94,21.12-19.06,19.33-34.57A35.48,35.48,0,0,0,190.1,156.1Z" transform="translate(-118.44 -134.07)"/></g></svg>