<svg id="Capa_1" data-name="Capa 1" xmlns="http://www.w3.org/2000/svg" viewBox="0 0 447.83 179"><defs><style>.cls-1{fill:#65a047;}.cls-2{fill:#87cc62;}.cls-3{fill:#00a5e1;}</style></defs><title>hsr</title><path class="cls-1" d="M274.85,90V224.24A44.76,44.76,0,0,1,230.12,269V157.13h0V134.76A44.73,44.73,0,0,1,274.85,90Z" transform="translate(-95.93 -90)"/><path class="cls-2" d="M274.85,201.87H207.76V269H163V201.87H95.93V157.13H163V90h44.73v67.13h67.09Z" transform="translate(-95.93 -90)"/><path class="cls-3" d="M315.77,236.65a6.16,6.16,0,0,0-1.42-1.17,13,13,0,0,0-2.22-1.15,20.68,20.68,0,0,0-2.76-.9,12.78,12.78,0,0,0-3.08-.36,8.24,8.24,0,0,0-5.14,1.29,4.24,4.24,0,0,0-1.67,3.5,3.76,3.76,0,0,0,.93,2.68,7,7,0,0,0,2.89,1.61c1.29.4,2.9.84,4.81,1.31a33,33,0,0,1,6.19,2,10,10,0,0,1,4,3.12,8.47,8.47,0,0,1,1.4,5.24,9.5,9.5,0,0,1-1,4.57,8.28,8.28,0,0,1-2.78,3.15,12.78,12.78,0,0,1-4.09,1.75,20,20,0,0,1-5,.6,25.07,25.07,0,0,1-10.18-2.21,23.32,23.32,0,0,1-4.37-2.62l2.57-4.78a9.62,9.62,0,0,0,1.75,1.42,22.29,22.29,0,0,0,6.33,2.64,16.35,16.35,0,0,0,3.88.47,9.21,9.21,0,0,0,5.06-1.15,3.9,3.9,0,0,0,1.75-3.4,3.6,3.6,0,0,0-.28-1.52,3.54,3.54,0,0,0-.88-1.28,9.9,9.9,0,0,0-3.3-1.75c-1.44-.49-3.17-1-5.25-1.48a29.54,29.54,0,0,1-5.77-2,7.31,7.31,0,0,1-4.64-7.38,9.7,9.7,0,0,1,6.23-9.5,16.41,16.41,0,0,1,6.45-1.23,19.15,19.15,0,0,1,4.53.53,19.94,19.94,0,0,1,4,1.42,16.89,16.89,0,0,1,3.29,2Z" transform="translate(-95.93 -90)"/><path class="cls-3" d="M322.08,256.16a6.94,6.94,0,0,1,1.4-4.32,9.19,9.19,0,0,1,3.9-2.87,15.25,15.25,0,0,1,5.71-1,22.61,22.61,0,0,1,3.49.28,16.79,16.79,0,0,1,3.22.77v-1.63a5.35,5.35,0,0,0-.35-2.28,5.58,5.58,0,0,0-1.27-1.94,6.71,6.71,0,0,0-4.71-1.52,11.22,11.22,0,0,0-4.09.74,20.65,20.65,0,0,0-4.1,2.24l-1.75-3.73a19.43,19.43,0,0,1,5.08-2.57,17.21,17.21,0,0,1,5.47-.88,11.59,11.59,0,0,1,8.15,2.75,10,10,0,0,1,3,7.75v9.61a2,2,0,0,0,.35,1.33,1.58,1.58,0,0,0,.52.33,1.47,1.47,0,0,0,.62.1v4.4a8.23,8.23,0,0,1-1.32.19l-1,.1a3.87,3.87,0,0,1-2.66-.89,3.35,3.35,0,0,1-1.05-2l-.14-1.49a10.59,10.59,0,0,1-4.26,3.38,12.75,12.75,0,0,1-5.25,1.2,9.78,9.78,0,0,1-4.6-1.06,8.11,8.11,0,0,1-3.15-2.89,7.53,7.53,0,0,1-1.21-4.1Zm16.43,1.61a14.3,14.3,0,0,0,.93-1.33,2.4,2.4,0,0,0,.36-1.17v-2.89a16.21,16.21,0,0,0-2.92-.82,17.12,17.12,0,0,0-2.95-.26,9,9,0,0,0-4.87,1.17,3.75,3.75,0,0,0-1.37,1.37,3.7,3.7,0,0,0-.48,1.87,4,4,0,0,0,.61,2.13,4.89,4.89,0,0,0,1.75,1.75,5.6,5.6,0,0,0,2.83.67,8.57,8.57,0,0,0,3.5-.72,8.43,8.43,0,0,0,2.61-1.77Z" transform="translate(-95.93 -90)"/><path class="cls-3" d="M374.44,263.71h-5.37V249.27a9.25,9.25,0,0,0-1.19-5.25,4,4,0,0,0-1.52-1.33,4,4,0,0,0-2-.42,6.81,6.81,0,0,0-3.15.82,9.87,9.87,0,0,0-2.76,2.12,8.67,8.67,0,0,0-1.75,3.1v15.34h-5.46V237.84h4.93v5.25a10.1,10.1,0,0,1,2.57-3,12,12,0,0,1,3.61-1.93,13.56,13.56,0,0,1,4.28-.7,7.88,7.88,0,0,1,3.85.84,5.94,5.94,0,0,1,2.38,2.31,10.76,10.76,0,0,1,1.19,3.34,22.67,22.67,0,0,1,.33,4Z" transform="translate(-95.93 -90)"/><path class="cls-3" d="M394.43,262.46c-.42.2-1,.44-1.75.72a16.45,16.45,0,0,1-2.36.72,11,11,0,0,1-2.68.31,7.31,7.31,0,0,1-3.09-.63,5,5,0,0,1-2.29-1.9,5.85,5.85,0,0,1-.88-3.33V242.08h-3.5v-4.24h3.5v-8.52h5.42v8.58h5.64v4.23H386.8V256.6a2.88,2.88,0,0,0,.24,1.08,2.74,2.74,0,0,0,.64.9,2.8,2.8,0,0,0,1.9.65,5.84,5.84,0,0,0,2.19-.42c.5-.19,1-.4,1.45-.63Z" transform="translate(-95.93 -90)"/><path class="cls-3" d="M395.81,256.16a7.09,7.09,0,0,1,1.4-4.32,9.19,9.19,0,0,1,3.9-2.87,15.24,15.24,0,0,1,5.7-1,22.64,22.64,0,0,1,3.5.28,16.79,16.79,0,0,1,3.22.77v-1.63a5.35,5.35,0,0,0-.35-2.28,5.61,5.61,0,0,0-1.28-1.94,6.62,6.62,0,0,0-4.67-1.59,11.25,11.25,0,0,0-4.09.74,19.75,19.75,0,0,0-4.11,2.24l-1.75-3.73a19.84,19.84,0,0,1,5.07-2.57,17.44,17.44,0,0,1,5.5-.88,11.55,11.55,0,0,1,8.13,2.75,10,10,0,0,1,3,7.75v9.61a2,2,0,0,0,.35,1.33,1.49,1.49,0,0,0,.52.33,1.4,1.4,0,0,0,.61.1v4.4a8.27,8.27,0,0,1-1.31.19l-1,.1a3.9,3.9,0,0,1-2.66-.89,3.15,3.15,0,0,1-1-2l-.16-1.49a10.62,10.62,0,0,1-4.27,3.38,12.67,12.67,0,0,1-5.24,1.2,9.9,9.9,0,0,1-4.6-1.06,8.11,8.11,0,0,1-3.15-2.89,7.69,7.69,0,0,1-1.23-4Zm16.44,1.61a10.08,10.08,0,0,0,.91-1.33,2.31,2.31,0,0,0,.37-1.17v-2.89a16.21,16.21,0,0,0-2.92-.82,17.23,17.23,0,0,0-3-.26,9,9,0,0,0-4.86,1.17,3.65,3.65,0,0,0-1.36,1.37,3.61,3.61,0,0,0-.49,1.87,3.9,3.9,0,0,0,.63,2.13,4.74,4.74,0,0,0,1.75,1.75,5.58,5.58,0,0,0,2.83.67,8.6,8.6,0,0,0,3.5-.72A8.39,8.39,0,0,0,412.25,257.77Z" transform="translate(-95.93 -90)"/><path class="cls-3" d="M437.41,263.71V228.32h15.3a9.68,9.68,0,0,1,4.36,1,11.75,11.75,0,0,1,3.5,2.64,13,13,0,0,1,2.27,3.71,11.46,11.46,0,0,1,.81,4.17,12.44,12.44,0,0,1-.84,4.51,10.39,10.39,0,0,1-2.4,3.66,9.09,9.09,0,0,1-3.62,2.24L465,263.71h-6.21l-7.61-12.25h-8.1v12.25ZM443,246.47h9.72a4.28,4.28,0,0,0,2.71-.93,6.32,6.32,0,0,0,1.88-2.41,8,8,0,0,0,.66-3.31,7,7,0,0,0-.8-3.34,6.66,6.66,0,0,0-2.05-2.36,4.64,4.64,0,0,0-2.71-.88h-9.34Z" transform="translate(-95.93 -90)"/><path class="cls-3" d="M479.62,264.21a13.55,13.55,0,0,1-5.48-1.06,12.88,12.88,0,0,1-4.18-2.94,13.25,13.25,0,0,1-2.69-4.27,13.92,13.92,0,0,1-.93-5.06,14.29,14.29,0,0,1,.93-5.25,13.25,13.25,0,0,1,2.69-4.27,12.47,12.47,0,0,1,4.2-2.94,14.5,14.5,0,0,1,10.91,0,13.08,13.08,0,0,1,6.88,7.21,13.86,13.86,0,0,1,.94,5.25,13.68,13.68,0,0,1-.94,5.06,13.28,13.28,0,0,1-2.7,4.27,12.57,12.57,0,0,1-4.18,2.94,13.58,13.58,0,0,1-5.45,1.06Zm-7.7-13.38a9.34,9.34,0,0,0,1,4.46,8.11,8.11,0,0,0,2.77,3.1,6.82,6.82,0,0,0,3.84,1.13,7,7,0,0,0,4-1.13,8.12,8.12,0,0,0,2.76-3.14,10.06,10.06,0,0,0,0-8.87,8.06,8.06,0,0,0-2.8-3.11,7,7,0,0,0-3.86-1.14,6.75,6.75,0,0,0-3.9,1.19,8.27,8.27,0,0,0-2.77,3.13,9.11,9.11,0,0,0-1,4.38Z" transform="translate(-95.93 -90)"/><path class="cls-3" d="M506.41,264.21a17.13,17.13,0,0,1-6.17-1.1,13.54,13.54,0,0,1-5-3.24l2-3.64a17.24,17.24,0,0,0,4.46,2.84,11.87,11.87,0,0,0,4.48.91,7.19,7.19,0,0,0,3.72-.84,2.64,2.64,0,0,0,1.05-1.07,2.81,2.81,0,0,0,.36-1.45,2.32,2.32,0,0,0-.18-1,2.07,2.07,0,0,0-.6-.78,6.67,6.67,0,0,0-2.16-1.05c-.93-.3-2.05-.61-3.33-1a34.15,34.15,0,0,1-4.61-1.75,7.13,7.13,0,0,1-2.84-2.26,5.73,5.73,0,0,1-.94-3.39,7,7,0,0,1,1.27-4.25,8.18,8.18,0,0,1,3.59-2.75,13.65,13.65,0,0,1,5.25-1,15.09,15.09,0,0,1,5.24.87,11.3,11.3,0,0,1,4.22,2.71l-2.31,3.5a12.31,12.31,0,0,0-3.5-2.29,10.39,10.39,0,0,0-3.9-.73,9.45,9.45,0,0,0-2.24.26,4,4,0,0,0-1.85,1,2.53,2.53,0,0,0-.58.92,2.76,2.76,0,0,0-.16,1.07,2.49,2.49,0,0,0,.13.94,2.32,2.32,0,0,0,.49.81,5.26,5.26,0,0,0,1.74,1.05c.79.3,1.75.63,2.93,1a44.13,44.13,0,0,1,5.12,1.75,8.85,8.85,0,0,1,3.29,2.24,5.54,5.54,0,0,1,1.15,3.72,6.85,6.85,0,0,1-.66,3.25,6.76,6.76,0,0,1-2.12,2.56,12,12,0,0,1-7.33,2.1Z" transform="translate(-95.93 -90)"/><path class="cls-3" d="M519.18,256.16a7.09,7.09,0,0,1,1.4-4.32,9.19,9.19,0,0,1,3.9-2.87,15.25,15.25,0,0,1,5.71-1,23.92,23.92,0,0,1,3.49.28,17.86,17.86,0,0,1,3.21.77v-1.63a5.52,5.52,0,0,0-.36-2.28,5.58,5.58,0,0,0-1.27-1.94,6.66,6.66,0,0,0-4.69-1.52,11.18,11.18,0,0,0-4.09.74,19.75,19.75,0,0,0-4.11,2.24l-1.75-3.73a19.84,19.84,0,0,1,5.07-2.57,17.38,17.38,0,0,1,5.49-.88,11.56,11.56,0,0,1,8.14,2.75,9.9,9.9,0,0,1,2.32,3.55,10,10,0,0,1,.65,4.2v9.61a2,2,0,0,0,.33,1.33,1.53,1.53,0,0,0,.53.33,1.4,1.4,0,0,0,.61.1v4.4a8.27,8.27,0,0,1-1.31.19l-1,.1a3.89,3.89,0,0,1-2.65-.89,3.21,3.21,0,0,1-1-2l-.15-1.49a10.69,10.69,0,0,1-4.27,3.38,12.68,12.68,0,0,1-5.25,1.2,9.72,9.72,0,0,1-4.58-1.06,8.09,8.09,0,0,1-3.17-2.89,7.83,7.83,0,0,1-1.19-4.1Zm16.45,1.61a12.47,12.47,0,0,0,.91-1.33,2.3,2.3,0,0,0,.36-1.17v-2.89a16.24,16.24,0,0,0-2.9-.82,17.46,17.46,0,0,0-3-.26,9,9,0,0,0-4.86,1.17,3.72,3.72,0,0,0-1.36,1.37,3.61,3.61,0,0,0-.49,1.87,3.9,3.9,0,0,0,.63,2.13,4.74,4.74,0,0,0,1.75,1.75,5.68,5.68,0,0,0,2.85.67,8.6,8.6,0,0,0,3.5-.72,8.75,8.75,0,0,0,2.5-1.77Z" transform="translate(-95.93 -90)"/><path class="cls-1" d="M305,157.26V174h13.7V157.26h12.73v44.59H318.7V184.16H305v17.69H292.28V157.26Z" transform="translate(-95.93 -90)"/><path class="cls-1" d="M372.59,185.3c0,12.47-9.25,17.22-17.92,17.22-10.38,0-17.76-6.27-17.76-16.75s7.44-17.12,18.18-17.12S372.59,175.52,372.59,185.3Zm-22.81.24c0,5.11,1.53,8.78,5.2,8.78,3.18,0,4.74-3.64,4.74-8.78,0-4.44-1.34-8.71-4.81-8.71-3.89,0-5.13,4.45-5.13,8.76Z" transform="translate(-95.93 -90)"/><path class="cls-1" d="M378,192.19a22.76,22.76,0,0,0,9.09,2.24c2.58,0,3.64-.6,3.64-1.82s-.91-1.82-4.49-3.05c-7.42-2.51-9.6-6.33-9.56-9.77,0-6.36,5.7-11.09,14.66-11.09a26.7,26.7,0,0,1,9.8,1.82l-2,7.89a18.94,18.94,0,0,0-7.11-1.64c-2.21,0-3.45.68-3.45,1.95s1,1.82,5,3.13c6.7,2.31,9.08,5.71,9.08,10,0,6.36-5.45,10.74-15.55,10.74a26.73,26.73,0,0,1-11.2-2.16Z" transform="translate(-95.93 -90)"/><path class="cls-1" d="M407.56,180.14c0-4.06-.15-7.71-.29-10.91h10.9l.58,4h.15a12.74,12.74,0,0,1,10.41-4.64c7.82,0,13.78,6.75,13.78,16.66,0,11.76-7.67,17.22-15,17.22a10.07,10.07,0,0,1-4.2-.69,9.78,9.78,0,0,1-3.52-2.37h-.15v15.37H407.6Zm12.59,8.16a7.26,7.26,0,0,0,.31,2.22,4.46,4.46,0,0,0,4.27,3.11c3.64,0,5.6-3.31,5.6-7.95,0-5-1.82-8-5.45-8a4.59,4.59,0,0,0-2.79.93,4.52,4.52,0,0,0-1.64,2.44,4.69,4.69,0,0,0-.3,1.81Z" transform="translate(-95.93 -90)"/><path class="cls-1" d="M460.9,160.43c0,3.14-2.56,5.54-6.47,5.54a5.64,5.64,0,0,1-2.31-.24,5.7,5.7,0,0,1-3.42-3,5.75,5.75,0,0,1-.52-2.27c0-3.27,2.6-5.57,6.36-5.57S460.87,157.16,460.9,160.43Zm-12.72,41.42V169.23H460.9v32.54Z" transform="translate(-95.93 -90)"/><path class="cls-1" d="M481.77,160.14v9.09H489v8.25h-7.27v10.44c0,3.78,1.21,5.16,4,5.16a18.7,18.7,0,0,0,3-.23v8.72a29.72,29.72,0,0,1-7.46.8,13.05,13.05,0,0,1-8.57-2.71c-2.19-1.81-3.35-4.94-3.35-10V177.48h-4.43v-8.25h4.36v-6.58Z" transform="translate(-95.93 -90)"/><path class="cls-1" d="M513.48,201.85l-.65-2.93h-.22a12.5,12.5,0,0,1-9.45,3.64c-6.85,0-11.29-4.66-11.29-10.2,0-8.73,8.69-12.48,19.69-12.51v-.39c0-1.47-1.33-2.89-5.57-2.89a21.66,21.66,0,0,0-9.47,2.29l-2.19-7.27a33.29,33.29,0,0,1,14.12-2.85c12.41,0,15.77,6.78,15.77,14.34v11.08a40.61,40.61,0,0,0,.59,7.78Zm-1.53-15c-4.74,0-7.87,1.33-7.87,4.36a3.31,3.31,0,0,0,.23,1.36,3.23,3.23,0,0,0,1.94,1.84,3.3,3.3,0,0,0,1.36.15,4.46,4.46,0,0,0,2.49-.71,4.41,4.41,0,0,0,1.67-2,5.19,5.19,0,0,0,.18-1.57Z" transform="translate(-95.93 -90)"/><path class="cls-1" d="M531,155.25h12.72v46.6H531Z" transform="translate(-95.93 -90)"/></svg>