<svg id="Capa_3" data-name="Capa 3" xmlns="http://www.w3.org/2000/svg" xmlns:xlink="http://www.w3.org/1999/xlink" viewBox="0 0 402.64 178.3"><defs><style>.cls-1{fill:#0876bb;}.cls-2{opacity:0.18;fill:url(#Degradado_sin_nombre_31);}.cls-3{fill:url(#Degradado_sin_nombre_31-2);}.cls-4{fill:#414344;}.cls-5{fill:#353535;}.cls-6{fill:#2d2f30;}.cls-7{fill:url(#Degradado_sin_nombre_8);}.cls-8{fill:url(#Degradado_sin_nombre_8-2);}.cls-9{fill:#f7f7f7;opacity:0.06;}</style><linearGradient id="Degradado_sin_nombre_31" x1="119" y1="207.31" x2="156.66" y2="207.31" gradientUnits="userSpaceOnUse"><stop offset="0" stop-color="#158fcc"/><stop offset="0.45" stop-color="#12658c"/><stop offset="0.99" stop-color="#0f3544"/></linearGradient><linearGradient id="Degradado_sin_nombre_31-2" x1="134.72" y1="242.37" x2="182.74" y2="242.37" xlink:href="#Degradado_sin_nombre_31"/><linearGradient id="Degradado_sin_nombre_8" x1="163.7" y1="237.64" x2="186.15" y2="237.64" gradientUnits="userSpaceOnUse"><stop offset="0" stop-color="#0876bb"/><stop offset="0.38" stop-color="#0b5c8c"/><stop offset="0.99" stop-color="#0f3544"/></linearGradient><linearGradient id="Degradado_sin_nombre_8-2" x1="202.82" y1="231.53" x2="214.84" y2="234.39" xlink:href="#Degradado_sin_nombre_8"/></defs><title>liza</title><g id="nuevo"><path class="cls-1" d="M246.31,210.67c-.49-.44-2.75-1.37-.69-2.84,0,0,8.33-4.27-.89-12.32-2.64-2.33-4.07-4-5.4-4.53-6.55,11.87-20,20-35.62,20-18.57,0-34.17-11.55-38.59-27.16a33.46,33.46,0,0,1-1.25-9,33.94,33.94,0,0,1,8.39-22.2,17,17,0,0,1,1.27-1.41s0,0,0,0h0a2.63,2.63,0,0,1,.56-.6.81.81,0,0,1,.2-.18c.33-.35.69-.69,1-1,1.37-1.57,2.5-4.18.53-8.07a5,5,0,0,0-2-2h0a5.14,5.14,0,0,0-1-.49,10.05,10.05,0,0,0-2.07-.62c-5.81-1.27-14.6.18-18.43.93a4.64,4.64,0,0,0-1.67.7,4.73,4.73,0,0,0-1.29,1.31C146,146.26,135.53,163,131.9,176.5a0,0,0,0,0,0,0,.44.44,0,0,0-.08.15c-.29.7-2.71,8.66.12,14.27,1,2,4.29,5.08,7.58,4.59a4.9,4.9,0,0,0-1.57,1.6l-16.82,30.36a1.08,1.08,0,0,0-.14.26c-.81,2.1-4.31,12.14.67,20.81a4.85,4.85,0,0,0,1.67,1.61,4.55,4.55,0,0,0,2.22.56h106.6s6.9,2.66,8-25.2a4.86,4.86,0,0,1,.74-2.4,4.73,4.73,0,0,1,1.84-1.65,9,9,0,0,0,3.52-2.5,8.79,8.79,0,0,0,2-3.87,4.94,4.94,0,0,0-1.83-4.44Z" transform="translate(-119 -90.7)"/><path id="sombra" class="cls-2" d="M149.69,215.64C137,230.59,137,241.18,137,241.18l-2-.16-7.78,9.47-.42.23h-1.27a4.44,4.44,0,0,1-2.22-.56,4.74,4.74,0,0,1-1.66-1.61c-5-8.66-1.5-18.71-.67-20.8a1.31,1.31,0,0,1,.12-.27l16.84-30.35a4.72,4.72,0,0,1,2-1.86c2.86-1.5,10-7.56,13.13-31l.77-.34S162.42,200.7,149.69,215.64Z" transform="translate(-119 -90.7)"/><path id="patita" class="cls-3" d="M154.87,243.06s-16.8-.92-20.07-2.24c0,0-.18-.2,0,.07s9.6,2,20.06,3.1Z" transform="translate(-119 -90.7)"/><path id="nariz" class="cls-4" d="M168.78,139.19s.37-2.08,3.33-1.63a3.81,3.81,0,0,1,1,3.21C172.62,142.45,168.78,139.19,168.78,139.19Z" transform="translate(-119 -90.7)"/><path id="boca" class="cls-5" d="M175.58,148.57a30.06,30.06,0,0,1-12.07,5.08.34.34,0,0,0-.06.58s7.67-.81,12.13-5.27C175.58,149,175.94,148.51,175.58,148.57Z" transform="translate(-119 -90.7)"/><path id="patita-2" data-name="patita" class="cls-1" d="M180.43,230.9a.59.59,0,0,1-.15,1C163,239.18,161.89,257.18,162,263.27a5.43,5.43,0,0,1-1.18,3.84,5.19,5.19,0,0,1-3.48,1.89h-.15c-4.75,0-4.88-3.94-4.88-3.94-.39-27.09,8.08-42.94,9.85-46.32.18-.33,1.14-.9,1.44-.67Z" transform="translate(-119 -90.7)"/><path id="patita-3" data-name="patita" class="cls-6" d="M166.66,214.28s-10.49,4.76-14.14,42.44c0,0,1.46-34.33,14.12-43.13Z" transform="translate(-119 -90.7)"/><path id="sombra-2" data-name="sombra" class="cls-7" d="M166.79,250.65c4-19.9,19.36-26.06,19.36-26.06-18.63,6.27-22.45,26.09-22.45,26.09Z" transform="translate(-119 -90.7)"/><path class="cls-8" d="M202.49,243.71s.19-20.36,12.35-21.57c0,0-10.05,2.49-10.11,21.38Z" transform="translate(-119 -90.7)"/><path class="cls-6" d="M215,222.2s-10.5.77-10.5,21.51c0,0-12.41-.93-12.41,7h.7s-.29-7.13,12.34-6.58l.05-.86s-.48-18.1,9.93-20.84Z" transform="translate(-119 -90.7)"/><path class="cls-9" d="M174.65,149l-.08.08c-.38.33-.76.71-1.13,1.09a.81.81,0,0,0-.2.18,2.4,2.4,0,0,0-.56.59c-.45.46-.91,1-1.31,1.45a33.94,33.94,0,0,0-8.39,22.2,33.46,33.46,0,0,0,1.25,9.05.92.92,0,0,1-.14.14c-.34-1-.63-2.06-.89-3.12a49,49,0,0,1,.2-24.6c.06-.26.12-.52.19-.75a49.76,49.76,0,0,1,6.95-14.75c1.09.7,2.36,1.25,2.64.34a3.9,3.9,0,0,0-.14-1.73s0-.06,0-.08a5,5,0,0,1,2,2C176.91,144.8,175.94,147.38,174.65,149Z" transform="translate(-119 -90.7)"/></g><path class="cls-1" d="M296.18,109.56a18.11,18.11,0,0,1-1.5,7.36,18.81,18.81,0,0,1-4.1,6,19.49,19.49,0,0,1-6.06,4,18.94,18.94,0,0,1-14.82,0,19.08,19.08,0,0,1-6-4,19.32,19.32,0,0,1-4-6,18.68,18.68,0,0,1,0-14.67,18.8,18.8,0,0,1,10.06-10,19.05,19.05,0,0,1,14.82,0,19.66,19.66,0,0,1,6.06,4,18.7,18.7,0,0,1,4.1,6A18.29,18.29,0,0,1,296.18,109.56Zm-4.9,141H263V139.16h28.32Z" transform="translate(-119 -90.7)"/><path class="cls-1" d="M398.91,250.57H306.38l46.73-83.08H306.38V139.16h92.53l-46.73,83.08h46.73Z" transform="translate(-119 -90.7)"/><path class="cls-1" d="M521.64,250.57h-6.88l-11-15.32a92.29,92.29,0,0,1-8.6,6.82,64.32,64.32,0,0,1-9.54,5.53,58.51,58.51,0,0,1-10.67,3.8,43.47,43.47,0,0,1-11.14,1.24,61.28,61.28,0,0,1-21.28-3.95,52.79,52.79,0,0,1-18.14-11.51,54.16,54.16,0,0,1-12.24-18.5,65.23,65.23,0,0,1-4.48-24.91,62.24,62.24,0,0,1,4.48-23.92,57,57,0,0,1,12.24-18.7A55.33,55.33,0,0,1,442.49,139a57,57,0,0,1,22.15-4.33A43,43,0,0,1,475.37,136a55.47,55.47,0,0,1,10.32,3.75,64,64,0,0,1,9.53,5.63,79.89,79.89,0,0,1,8.5,7l11-13.24h6.88Zm-29.12-56.32A29.3,29.3,0,0,0,490.29,183a32.12,32.12,0,0,0-6.06-9.64,30.15,30.15,0,0,0-9-6.74,24.34,24.34,0,0,0-10.93-2.54,30.3,30.3,0,0,0-10.94,2,24.91,24.91,0,0,0-8.91,5.8,27.15,27.15,0,0,0-6,9.49,39.46,39.46,0,0,0,0,25.81,27.15,27.15,0,0,0,6,9.49,24.91,24.91,0,0,0,8.91,5.8,30.3,30.3,0,0,0,10.94,2,24.34,24.34,0,0,0,10.93-2.54,30.15,30.15,0,0,0,9-6.74,32.12,32.12,0,0,0,6.06-9.64A29.35,29.35,0,0,0,492.52,194.25Z" transform="translate(-119 -90.7)"/></svg>